<?xml version="1.0" encoding="iso-8859-1"?>
<!-- Generator: Adobe Illustrator 23.0.1, SVG Export Plug-In . SVG Version: 6.00 Build 0)  -->
<svg version="1.1" xmlns="http://www.w3.org/2000/svg" xmlns:xlink="http://www.w3.org/1999/xlink" x="0px" y="0px"
	 viewBox="0 0 64 64" style="enable-background:new 0 0 64 64;" xml:space="preserve">
<g id="_x31_0">
	<path style="fill:#686E7B;" d="M54.753,58.871h-1.452v-1.452h1.452V58.871z M50.389,57.418h-2.911v1.452h2.911V57.418z
		 M44.566,57.418h-2.911v1.452h2.911V57.418z M38.743,57.418h-2.911v1.452h2.911V57.418z M32.921,57.418h-2.912v1.452h2.912V57.418z
		 M27.098,57.418h-2.912v1.452h2.912V57.418z M21.275,57.418h-2.912v1.452h2.912V57.418z M15.468,57.416
		c-0.873-0.02-1.705-0.234-2.473-0.636l-0.674,1.286c0.968,0.508,2.016,0.778,3.115,0.803L15.468,57.416z M11.057,55.112
		c-0.508-0.694-0.854-1.507-1.001-2.351l-1.431,0.25c0.185,1.063,0.62,2.086,1.259,2.959L11.057,55.112z M11.047,47.755L9.872,46.9
		c-0.636,0.875-1.068,1.9-1.25,2.964l1.432,0.244C10.198,49.263,10.541,48.449,11.047,47.755z M15.452,45.435l-0.04-1.452
		c-1.098,0.03-2.145,0.304-3.111,0.813l0.678,1.284C13.746,45.676,14.578,45.458,15.452,45.435z M27.077,43.981h-2.911v1.452h2.911
		V43.981z M21.254,43.981h-2.911v1.452h2.911V43.981z M32.906,43.326l-1.034-1.019c-0.604,0.613-1.351,1.085-2.16,1.365l0.476,1.373
		C31.207,44.692,32.147,44.098,32.906,43.326z M34.946,38.356c0-0.321-0.022-0.648-0.066-0.968l-1.439,0.195
		c0.035,0.253,0.052,0.512,0.052,0.773c0,0.607-0.096,1.204-0.285,1.774l1.379,0.458C34.825,39.869,34.946,39.119,34.946,38.356z
		 M33.727,34.383c-0.607-0.893-1.423-1.647-2.359-2.181l-0.72,1.261c0.745,0.425,1.395,1.026,1.877,1.737L33.727,34.383z
		 M28.286,31.289c-0.139-0.009-0.278-0.012-0.418-0.012H25.33v1.452h2.537c0.111,0,0.22,0.004,0.33,0.01L28.286,31.289z
		 M22.419,31.277h-2.911v1.452h2.911V31.277z M16.596,31.277h-2.911v1.452h2.911V31.277z M10.7,31.277H9.247v1.452H10.7V31.277z"/>
	<path style="fill:#F6BC38;" d="M53.785,31.271c-5.642,0-10.215,4.574-10.215,10.215c0,7.681,10.215,16.658,10.215,16.658
		S64,49.367,64,41.486C64,35.845,59.426,31.271,53.785,31.271z M53.785,47.632c-3.43,0-6.21-2.78-6.21-6.21s2.78-6.21,6.21-6.21
		c3.43,0,6.21,2.78,6.21,6.21S57.214,47.632,53.785,47.632z"/>
	<path style="fill:#48CAA2;" d="M10.215,5.129C4.574,5.129,0,9.703,0,15.345c0,7.681,10.215,16.658,10.215,16.658
		s10.215-8.777,10.215-16.658C20.431,9.703,15.857,5.129,10.215,5.129z M10.215,21.49c-3.43,0-6.21-2.78-6.21-6.21
		s2.78-6.21,6.21-6.21s6.21,2.78,6.21,6.21S13.645,21.49,10.215,21.49z"/>
</g>
<g id="Layer_1">
</g>
</svg>
