<?xml version="1.0" encoding="iso-8859-1"?>
<!-- Generator: Adobe Illustrator 23.0.1, SVG Export Plug-In . SVG Version: 6.00 Build 0)  -->
<svg version="1.1" xmlns="http://www.w3.org/2000/svg" xmlns:xlink="http://www.w3.org/1999/xlink" x="0px" y="0px"
	 viewBox="0 0 64 64" style="enable-background:new 0 0 64 64;" xml:space="preserve">
<g id="_x31_1">
	<path style="fill:#C7D0D9;" d="M50.667,6.003L38.051,18.62L21.282,1.842C24.632,0.649,28.24,0,32,0
		C38.967,0,45.418,2.224,50.667,6.003z"/>
	<path style="fill:#EDEDED;" d="M36.705,19.965l-6.347,6.347c-0.668-0.134-1.346-0.21-2.052-0.21c-1.098,0-2.157,0.181-3.149,0.506
		L8.656,10.116c2.978-3.188,6.614-5.764,10.679-7.511L36.705,19.965z"/>
	<path style="fill:#EDEDED;" d="M62.855,23.506l-9.954,9.964L40.074,20.643L52.929,7.797C57.644,11.872,61.156,17.312,62.855,23.506
		z"/>
	<path style="fill:#EDEDED;" d="M51.545,34.815L42.45,43.91l-4.61-4.619c0.162-0.487,0.286-0.993,0.372-1.508
		c0.115-0.544,0.181-1.098,0.181-1.641h-0.048c0-3.732-2.042-6.996-5.058-8.713l5.44-5.44L51.545,34.815z"/>
	<path style="fill:#EDEDED;" d="M61.404,44.664c-1.756,4.066-4.323,7.692-7.511,10.679l-9.41-9.41l9.095-9.095L61.404,44.664z"/>
	<path style="fill:#EDEDED;" d="M64,32.01c0,3.76-0.649,7.358-1.842,10.708l-7.234-7.225l8.656-8.666
		C63.857,28.517,64,30.244,64,32.01z"/>
	<path style="fill:#EDEDED;" d="M30.11,63.952c-1.107-0.057-2.205-0.181-3.283-0.363l1.46-1.46L30.11,63.952z"/>
	<path style="fill:#EDEDED;" d="M11.414,45.256l-5.411,5.411C2.558,45.896,0.41,40.131,0.048,33.899L11.414,45.256z"/>
	<path style="fill:#EDEDED;" d="M26.255,60.106l-2.758,2.758c-6.194-1.699-11.634-5.211-15.709-9.935l5.65-5.65L26.255,60.106z"/>
	<path style="fill:#EDEDED;" d="M18.267,36.142c0,0.697,0.076,1.384,0.219,2.042L12.76,43.91L0,31.141
		c0.2-7.435,2.93-14.249,7.387-19.593l15.9,15.9C20.29,29.175,18.267,32.42,18.267,36.142z"/>
	<path style="fill:#85CBA7;" d="M41.105,45.256L27.61,58.76L14.783,45.934l4.81-4.81c0.239,0.439,0.525,0.859,0.84,1.26
		c2.959,4.734,7.874,8.733,7.874,8.733h0.048c0,0,5.173-4.209,8.093-9.095c0.2-0.277,0.391-0.563,0.554-0.868L41.105,45.256z"/>
	<path style="fill:#EDEDED;" d="M52.462,56.613C47.117,61.07,40.303,63.809,32.849,64l-3.216-3.216l13.495-13.504L52.462,56.613z"/>
	<path style="fill:#FCE35C;" d="M35.909,36.026c0-4.197-3.402-7.599-7.599-7.599c-4.197,0-7.599,3.402-7.599,7.599
		c0,1.783,0.616,3.422,1.644,4.718c2.234,3.584,5.955,6.615,5.955,6.615h0.038c0,0,3.913-3.187,6.123-6.888
		c0.673-0.932,1.141-2.021,1.335-3.203c0.088-0.418,0.141-0.834,0.141-1.242H35.909z M28.31,40.334
		c-2.379,0-4.308-1.929-4.308-4.308c0-2.379,1.929-4.308,4.308-4.308c2.379,0,4.308,1.929,4.308,4.308
		C32.618,38.406,30.689,40.334,28.31,40.334z"/>
</g>
<g id="Layer_1">
</g>
</svg>
