<?xml version="1.0" encoding="iso-8859-1"?>
<!-- Generator: Adobe Illustrator 23.0.1, SVG Export Plug-In . SVG Version: 6.00 Build 0)  -->
<svg version="1.1" xmlns="http://www.w3.org/2000/svg" xmlns:xlink="http://www.w3.org/1999/xlink" x="0px" y="0px"
	 viewBox="0 0 64 64" style="enable-background:new 0 0 64 64;" xml:space="preserve">
<g id="_x31_2">
	<path style="fill:#F3F4F4;" d="M26.583,39.455H0.002V21.942h20.154c-0.07,0.532-0.1,1.074-0.1,1.627
		C20.056,27.204,23.289,33.741,26.583,39.455z"/>
	<path style="fill:#F3F4F4;" d="M33.452,50.38h-0.1V50.23C33.392,50.29,33.432,50.34,33.452,50.38z"/>
	<path style="fill:#F3F4F4;" d="M63.999,2.681v31.833H51.507V50.38H33.613c1.085-1.587,13.396-19.702,13.396-26.812
		c0-0.954-0.1-1.888-0.291-2.792c-0.201-0.944-0.492-1.848-0.874-2.701c-1.516-3.394-4.398-6.045-7.943-7.26
		c-0.864-0.291-1.757-0.502-2.691-0.613c-0.552-0.07-1.105-0.11-1.677-0.11c-5.664,0-10.524,3.505-12.512,8.465V0h40.298
		C62.794,0,63.999,1.205,63.999,2.681z"/>
	<path style="fill:#C7D0D9;" d="M18.33,19.246V0.003H2.682c-1.481,0-2.682,1.201-2.682,2.682v16.561H18.33z"/>
	<path style="fill:#86C7F9;" d="M54.203,37.211v15.862H33.346V64h27.97c1.481,0,2.682-1.201,2.682-2.682V37.211H54.203z"/>
	<path style="fill:#85CBA7;" d="M30.65,46.133v17.865H2.683c-1.486,0-2.681-1.195-2.681-2.681v-19.17H28.17
		C29.054,43.602,29.897,44.958,30.65,46.133z"/>
	<path style="fill:#FCE35C;" d="M35.209,0v10.203c0.934,0.11,1.828,0.321,2.691,0.613V0H35.209z M45.844,18.075
		c0.382,0.854,0.673,1.757,0.874,2.701h17.282v-2.701H45.844z"/>
	<path style="fill:#FFFFFF;" d="M33.452,50.38c0.05,0.07,0.08,0.11,0.08,0.11s0.03-0.04,0.08-0.11H33.452z"/>
	<path style="fill:#E55148;" d="M33.532,13.595c-5.412,0-9.8,4.463-9.8,9.968c0,5.505,9.8,19.916,9.8,19.916s9.8-14.411,9.8-19.916
		C43.332,18.058,38.944,13.595,33.532,13.595z M33.532,28.146c-2.488,0-4.505-2.052-4.505-4.583c0-2.531,2.017-4.583,4.505-4.583
		s4.505,2.052,4.505,4.583C38.037,26.094,36.02,28.146,33.532,28.146z"/>
</g>
<g id="Layer_1">
</g>
</svg>
