<?xml version="1.0" encoding="iso-8859-1"?>
<!-- Generator: Adobe Illustrator 23.0.1, SVG Export Plug-In . SVG Version: 6.00 Build 0)  -->
<svg version="1.1" xmlns="http://www.w3.org/2000/svg" xmlns:xlink="http://www.w3.org/1999/xlink" x="0px" y="0px"
	 viewBox="0 0 64 64" style="enable-background:new 0 0 64 64;" xml:space="preserve">
<g id="_x32_">
	<path style="fill:#8AB6F4;" d="M32,64c-8.547,0-16.584-3.328-22.627-9.373C3.328,48.583,0,40.548,0,32
		c0-8.547,3.328-16.583,9.373-22.627C15.417,3.328,23.453,0,32,0s16.583,3.328,22.627,9.373C60.672,15.417,64,23.452,64,32
		c0,8.548-3.328,16.584-9.373,22.627C48.583,60.672,40.548,64,32,64z M32,4.484c-7.35,0-14.26,2.862-19.457,8.059
		c-10.728,10.729-10.728,28.185,0,38.914C17.74,56.654,24.65,59.516,32,59.516s14.26-2.862,19.457-8.059
		c10.728-10.729,10.728-28.185,0-38.914C46.26,7.346,39.35,4.484,32,4.484z M17.238,40.536c-3.867-6.68-2.76-15.154,2.692-20.606
		c5.454-5.452,13.926-6.558,20.606-2.692l1.123-1.94c-7.557-4.377-17.146-3.125-23.314,3.047
		c-6.169,6.169-7.422,15.757-3.047,23.314L17.238,40.536z M45.655,45.655c6.17-6.17,7.423-15.757,3.047-23.314l-1.94,1.123
		c3.868,6.68,2.76,15.153-2.692,20.606c-5.452,5.452-13.925,6.559-20.606,2.692l-1.123,1.94c3.014,1.745,6.35,2.594,9.663,2.594
		C37.001,51.296,41.946,49.364,45.655,45.655z"/>
	<path style="fill:#FC4500;" d="M49.728,14.273L28.236,28.236L14.273,49.727l21.492-13.963L49.728,14.273z M29.623,34.377
		c-1.313-1.313-1.313-3.442,0-4.755c1.313-1.313,3.442-1.313,4.755,0c1.313,1.313,1.313,3.442,0,4.755
		C33.065,35.69,30.936,35.69,29.623,34.377z"/>
</g>
<g id="Layer_1">
</g>
</svg>
