<?xml version="1.0" encoding="iso-8859-1"?>
<!-- Generator: Adobe Illustrator 23.0.1, SVG Export Plug-In . SVG Version: 6.00 Build 0)  -->
<svg version="1.1" xmlns="http://www.w3.org/2000/svg" xmlns:xlink="http://www.w3.org/1999/xlink" x="0px" y="0px"
	 viewBox="0 0 64 64" style="enable-background:new 0 0 64 64;" xml:space="preserve">
<g id="_x33_">
	<path style="fill:#E0DFDD;" d="M53.877,14.837c-0.069,0-0.147,0-0.216-0.01l4.646-1.925C57.207,14.09,55.635,14.837,53.877,14.837z
		"/>
	<path style="fill:#E0DFDD;" d="M15.781,17.879l15.288-6.354v46.12l-15.288,6.354V17.879z M53.877,35.111
		c0,0-3.959-5.717-7.524-12.092c-0.01-0.02-0.029-0.049-0.039-0.069V64l0.02-0.01l0.02-0.01l15.255-6.336V22.666
		C57.983,29.178,53.877,35.111,53.877,35.111z"/>
	<path style="fill:#F1E9E7;" d="M15.82,63.999L0.532,57.646v-46.12l15.288,6.354V63.999z M46.313,22.95
		c-1.208-2.151-2.367-4.371-3.31-6.463l-11.935-4.961v46.118l15.245,6.336l0.02,0.01l0.02,0.01V23.019
		C46.343,22.999,46.323,22.97,46.313,22.95z"/>
	<path style="fill:#499FE1;" d="M53.881,0c-5.294,0-9.586,4.292-9.586,9.586c0,5.294,9.586,19.154,9.586,19.154
		s9.586-13.859,9.586-19.154C63.468,4.292,59.176,0,53.881,0z M53.881,13.993c-2.434,0-4.407-1.973-4.407-4.407
		c0-2.434,1.973-4.407,4.407-4.407c2.434,0,4.407,1.973,4.407,4.407C58.288,12.02,56.315,13.993,53.881,13.993z"/>
</g>
<g id="Layer_1">
</g>
</svg>
