<?xml version="1.0" encoding="iso-8859-1"?>
<!-- Generator: Adobe Illustrator 23.0.1, SVG Export Plug-In . SVG Version: 6.00 Build 0)  -->
<svg version="1.1" xmlns="http://www.w3.org/2000/svg" xmlns:xlink="http://www.w3.org/1999/xlink" x="0px" y="0px"
	 viewBox="0 0 64 64" style="enable-background:new 0 0 64 64;" xml:space="preserve">
<g id="_x34_">
	<polygon style="fill:#87CDA9;" points="26.848,64 36.718,54.13 27.894,45.306 9.2,64 	"/>
	<polygon style="fill:#CCD6D6;" points="49.325,41.523 49.301,23.899 29.985,43.215 38.809,52.039 	"/>
	<path style="fill:#CCD6D6;" d="M14.659,53.503H7.637c-2.892,0-5.248,2.356-5.248,5.248c0,2.125,1.274,3.957,3.096,4.781
		l20.318-20.318L14.688,32.1L14.659,53.503z"/>
	<path style="fill:#C5CDD6;" d="M56.363,53.503h-7.022L49.331,45.7l-8.43,8.43L50.77,64h5.593c2.892,0,5.248-2.356,5.248-5.248
		C61.612,55.859,59.256,53.503,56.363,53.503z"/>
	<polygon style="fill:#CCD6D6;" points="38.809,56.221 31.03,64 46.588,64 	"/>
	<path style="fill:#FC6C45;" d="M61.612,20.312v33.709c-1.292-1.437-3.165-2.338-5.248-2.338H51.16l-0.045-31.372
		c0-2.892,2.356-5.248,5.248-5.248C59.256,15.064,61.612,17.42,61.612,20.312z M7.637,15.064c-2.892,0-5.248,2.356-5.248,5.248
		v33.709c1.292-1.437,3.165-2.338,5.248-2.338h5.203l0.045-31.372C12.885,17.42,10.529,15.064,7.637,15.064z"/>
	<path style="fill:#86C8FA;" d="M22.387,25.808c-1.932-1.459-3.526-3.343-4.636-5.514h-3.047c0,0,0,0.009,0,0.018l-0.01,7.611
		l13.2,13.2l2.696-2.696L22.387,25.808z"/>
	<path style="fill:#86C8FA;" d="M48.723,20.294h-2.474c-1.111,2.171-2.704,4.055-4.636,5.514l-2.965,4.562L48.723,20.294z"/>
	<path style="fill:#9C87F2;" d="M32,0c-7.236,0-13.101,5.866-13.101,13.101c0,4.275,2.056,8.059,5.224,10.451L32,35.67l7.877-12.119
		c3.167-2.391,5.224-6.176,5.224-10.451C45.101,5.866,39.236,0,32,0z M32,21.769c-4.84,0-8.764-3.924-8.764-8.764
		S27.16,4.241,32,4.241s8.764,3.924,8.764,8.764S36.84,21.769,32,21.769z"/>
</g>
<g id="Layer_1">
</g>
</svg>
