<?xml version="1.0" encoding="iso-8859-1"?>
<!-- Generator: Adobe Illustrator 23.0.1, SVG Export Plug-In . SVG Version: 6.00 Build 0)  -->
<svg version="1.1" xmlns="http://www.w3.org/2000/svg" xmlns:xlink="http://www.w3.org/1999/xlink" x="0px" y="0px"
	 viewBox="0 0 64 64" style="enable-background:new 0 0 64 64;" xml:space="preserve">
<g id="_x36_">
	<path style="fill:#A6DD6B;" d="M46.777,36.687v4.765H32.242c-0.519-1.854-1.979-3.314-3.833-3.833v-5.615
		c1.917,2.033,3.564,3.376,3.564,3.376h0.054c0,0,4.568-3.726,7.335-8.15L46.777,36.687z"/>
	<path style="fill:#F7E8CB;" d="M46.777,11.458v20.393l-5.884-7.505c0.17-0.475,0.296-0.967,0.376-1.478
		c0.107-0.519,0.179-1.03,0.179-1.54h-0.054c0-1.863-0.537-3.6-1.478-5.06L46.777,11.458z M32.242,44.434
		c-0.654,2.329-2.794,4.039-5.329,4.039c-3.045,0-5.526-2.481-5.526-5.526c0-2.535,1.711-4.675,4.039-5.329v-8.634
		c0-0.179,0-0.367,0.018-0.546c-0.296-0.412-0.582-0.833-0.851-1.263c-1.272-1.603-2.042-3.636-2.042-5.848
		c0-3.797,2.248-7.066,5.481-8.553l-5.069-6.466h-5.741v46.544h29.555v-8.419H32.242z"/>
	<path style="fill:#565655;" d="M47.135,0h-30.27c-1.845,0-3.341,1.496-3.341,3.341v57.318c0,1.845,1.496,3.341,3.341,3.341h30.27
		c1.845,0,3.341-1.496,3.341-3.341V3.341C50.476,1.496,48.98,0,47.135,0z M28.768,2.45h6.465c0.402,0,0.727,0.326,0.727,0.727
		c0,0.402-0.326,0.727-0.727,0.727h-6.465c-0.402,0-0.727-0.326-0.727-0.727C28.04,2.776,28.366,2.45,28.768,2.45z M32,62.558
		c-2.09,0-3.784-1.694-3.784-3.784S29.91,54.99,32,54.99s3.784,1.694,3.784,3.784S34.09,62.558,32,62.558z M46.778,52.85H17.222
		V6.305h29.556V52.85z"/>
	<path style="fill:#67CBFF;" d="M26.915,40.394c1.406,0,2.549,1.144,2.549,2.549c0,1.406-1.144,2.549-2.549,2.549
		s-2.549-1.144-2.549-2.549C24.366,41.537,25.51,40.394,26.915,40.394z M26.753,6.305l4.425,5.645
		c0.263-0.022,0.526-0.044,0.795-0.044c2.254,0,4.313,0.804,5.934,2.125l8.872-6.213V6.305H26.753z"/>
	<path style="fill:#FC3E38;" d="M39.113,21.215c0-3.938-3.193-7.131-7.131-7.131c-3.938,0-7.131,3.193-7.131,7.131
		c0,1.673,0.578,3.211,1.543,4.428c2.097,3.363,5.588,6.208,5.588,6.208h0.036c0,0,3.672-2.99,5.746-6.464
		c0.632-0.874,1.07-1.897,1.253-3.006c0.083-0.392,0.132-0.782,0.132-1.166H39.113z M31.982,25.258c-2.233,0-4.043-1.81-4.043-4.043
		c0-2.233,1.81-4.043,4.043-4.043c2.233,0,4.043,1.81,4.043,4.043C36.025,23.448,34.215,25.258,31.982,25.258z"/>
</g>
<g id="Layer_1">
</g>
</svg>
