<?xml version="1.0" encoding="iso-8859-1"?>
<!-- Generator: Adobe Illustrator 23.0.1, SVG Export Plug-In . SVG Version: 6.00 Build 0)  -->
<svg version="1.1" xmlns="http://www.w3.org/2000/svg" xmlns:xlink="http://www.w3.org/1999/xlink" x="0px" y="0px"
	 viewBox="0 0 64 64" style="enable-background:new 0 0 64 64;" xml:space="preserve">
<g id="_x38_">
	<path style="fill:#F4EFE8;" d="M64,43.744l-10.551-1.633l-9.954,1.688l-10.249-1.523l-5.948,0.933
		c0.316-1.235,0.48-2.531,0.48-3.862c0-3.43-1.104-6.606-2.984-9.186c-1.845-2.552-4.445-4.521-7.477-5.584
		c-1.619-0.569-3.361-0.878-5.179-0.878c-2.017,0-3.945,0.384-5.714,1.077l3.766-10.269l10.05-1.989l7.237,1.626l7.436-1.592
		l7.738,1.797l6.634-1.29l0.027,0.007l7.711,1.118l6.929,29.368L64,43.744z"/>
	<path style="fill:#CCDFA7;" d="M57.023,13.992l-7.738-1.125l0.027,0.199l4.137,28.86l10.503,1.626L64,43.559L57.023,13.992z
		 M42.652,14.349l-7.738-1.797l-1.667,29.725l10.249,1.523L42.652,14.349z M20.24,12.517l-2.922,12.06
		c3.032,1.063,5.632,3.032,7.477,5.584l2.682-16.018L20.24,12.517z"/>
	<path style="fill:#E54945;" d="M12.137,51.483C5.444,51.483,0,46.038,0,39.346c0-6.692,5.444-12.137,12.137-12.137
		c6.692,0,12.136,5.445,12.136,12.137C24.273,46.038,18.829,51.483,12.137,51.483z M12.137,29.267
		c-5.558,0-10.079,4.521-10.079,10.079c0,5.557,4.521,10.078,10.079,10.078c5.557,0,10.078-4.521,10.078-10.078
		C22.215,33.789,17.694,29.267,12.137,29.267z"/>
	<path style="fill:#69BBED;" d="M17.232,34.251l-8.06,2.131l-2.131,8.06l8.06-2.131L17.232,34.251z M10.878,40.605
		c-0.695-0.695-0.695-1.822,0-2.517s1.822-0.695,2.517,0s0.695,1.822,0,2.517S11.573,41.3,10.878,40.605z"/>
</g>
<g id="Layer_1">
</g>
</svg>
