<?xml version="1.0" encoding="iso-8859-1"?>
<!-- Generator: Adobe Illustrator 23.0.1, SVG Export Plug-In . SVG Version: 6.00 Build 0)  -->
<svg version="1.1" xmlns="http://www.w3.org/2000/svg" xmlns:xlink="http://www.w3.org/1999/xlink" x="0px" y="0px"
	 viewBox="0 0 64 64" style="enable-background:new 0 0 64 64;" xml:space="preserve">
<g id="_x39_">
	<path style="fill:#C7D0D9;" d="M40.185,40.112c0,0.844,0.777,1.608,1.933,1.903c0.333,0.086,0.673,0.129,1.014,0.129
		c1.602,0,2.956-0.931,2.956-2.032c0-1.102-1.354-2.032-2.956-2.032C41.535,38.08,40.185,39.01,40.185,40.112z"/>
	<path style="fill:#E4E7EA;" d="M59.85,38.974H48.285c-0.626-1.83-2.692-3.18-5.148-3.18c-2.944,0-5.344,1.936-5.344,4.319
		c0,1.537,1,2.912,2.562,3.676l-0.887,2.79H21.404l1.586-12.176h0.878c2.359,2.895,5.189,5.514,8.19,8.044
		c0.512,0.423,0.992,0.586,1.529-0.033c2.375-2.749,5.132-5.124,7.385-8.011h17.804L59.85,38.974z"/>
	<polygon style="fill:#FDE468;" points="2.362,46.582 18.993,46.582 20.58,34.404 5.221,34.404 	"/>
	<polygon style="fill:#C7D0D9;" points="40.09,48.865 21.104,48.865 20.09,56.644 58.004,56.644 	"/>
	<polygon style="fill:#E4E7EA;" points="18.696,48.865 1.826,48.865 0,56.644 17.682,56.644 	"/>
	<path style="fill:#8BCFFF;" d="M21.095,30.458l-0.22,1.659H5.755l1.619-6.873h11.297C19.289,27.091,20.111,28.824,21.095,30.458z"
		/>
	<path style="fill:#87CDA9;" d="M58.24,32.118H42.648c1.505-2.188,2.757-4.465,3.652-6.873h10.329L58.24,32.118z"/>
	<path style="fill:#8BCFFF;" d="M60.387,41.254H48.282c-0.622,1.826-2.692,3.174-5.15,3.174c-0.16,0-0.319-0.018-0.479-0.03
		l-0.855,2.701l21.983,9.546H64L60.387,41.254z"/>
	<path style="fill:#676976;" d="M33.24,7.38c-2.323-0.156-4.394,0.463-6.316,1.534c-0.926,0.516-2.455,1.8-3.121,2.664
		c-1.521,1.971-2.454,4.196-2.446,6.897c0.027,8.331,4.984,13.755,10.837,18.684c0.373,0.312,0.727,0.431,1.124-0.024
		c1.781-2.05,3.842-3.829,5.522-5.999c2.977-3.848,5.014-7.985,4.921-12.951C43.656,12.756,39.3,7.784,33.24,7.38z M32.528,25.197
		c-3.503,0-6.343-2.84-6.343-6.343c0-3.503,2.84-6.343,6.343-6.343c3.503,0,6.343,2.84,6.343,6.343
		C38.872,22.357,36.032,25.197,32.528,25.197z"/>
</g>
<g id="Layer_1">
</g>
</svg>
