<?xml version="1.0" encoding="utf-8"?>
<!-- Generator: Adobe Illustrator 16.0.0, SVG Export Plug-In . SVG Version: 6.00 Build 0)  -->
<!DOCTYPE svg PUBLIC "-//W3C//DTD SVG 1.0//EN" "http://www.w3.org/TR/2001/REC-SVG-20010904/DTD/svg10.dtd">
<svg version="1.0" id="Capa_1" xmlns="http://www.w3.org/2000/svg" xmlns:xlink="http://www.w3.org/1999/xlink" x="0px" y="0px"
	 width="76.807px" height="76.808px" viewBox="0 687.522 76.807 76.808" enable-background="new 0 687.522 76.807 76.808"
	 xml:space="preserve">
<g>
	<g>
		<g>
			<path fill="#3864F3" stroke="#3864F3" stroke-width="2" stroke-miterlimit="10" d="M2.192,717.74
				c0.017,0.634,0.351,1.205,0.87,1.489l3.967,3.598c-0.146,0.767-0.574,1.979-0.574,2.708c0,6.627,4.939,12.02,11.01,12.02
				c0.194,0,0.378-0.045,0.569-0.061l1.165,2.546c0.194,0.422,0.539,0.739,0.954,0.877c0.149,0.048,0.301,0.071,0.454,0.071
				c0.273,0,0.545-0.077,0.786-0.229l13.386-8.432l1.729,3.145c1.287,2.344,3.644,3.8,6.147,3.8c0.512,0,1.013-0.106,1.509-0.225
				l2.578,4.223c1.754,2.872,4.689,4.586,7.852,4.586h11.631v1.714c0,0.948,0.704,1.717,1.573,1.717h6.292
				c0.87,0,1.573-0.769,1.573-1.717v-17.172c0-0.949-0.704-1.698-1.573-1.698h-6.291c-0.87,0-1.573,0.749-1.573,1.698v5.164h-11.63
				l-2.395-3.93c0.89-1.279,1.442-2.827,1.442-4.472c0-1.601-0.484-3.187-1.364-4.466l-1.625-2.365l8.997-5.667
				c2.115-1.331,3.43-3.816,3.43-6.484c0-1.544-0.428-3.028-1.239-4.295l-8.264-12.885c-2.169-3.386-6.673-4.494-9.963-2.438
				L2.985,716.202C2.481,716.515,2.177,717.107,2.192,717.74z M69.371,747.855v-13.725h3.146v13.725H69.371L69.371,747.855z
				 M47.097,737.673l2.701-1.768l2.178,3.564c0.582,0.957,1.561,1.528,2.618,1.528h11.63v3.431h-11.63
				c-2.109,0-4.066-1.143-5.235-3.056L47.097,737.673z M37.504,730.629l10.404-6.548l1.853,2.694
				c0.473,0.69,0.734,1.543,0.734,2.404c0,1.399-0.684,2.716-1.784,3.435l-3.989,2.61c-1.831,1.201-4.419,0.49-5.519-1.505
				L37.504,730.629z M16.389,726.231l38.924-24.492l3.949,6.151c0.439,0.686,0.671,1.488,0.671,2.324
				c0,1.442-0.711,2.786-1.855,3.506l-36.811,23.166L16.389,726.231z M9.601,725.557c0-0.203,0.035-0.422,0.053-0.632l3.494,1.905
				l3.292,7.191C12.592,733.468,9.601,729.904,9.601,725.557z M6.649,717.846l38.524-24.254c0.668-0.417,1.429-0.636,2.198-0.636
				c1.444,0,2.798,0.771,3.626,2.061l2.503,3.899l-39.235,24.688L6.649,717.846z"/>
			
				<ellipse fill="#3864F3" stroke="#3864F3" stroke-width="2" stroke-miterlimit="10" cx="16.781" cy="717.087" rx="1.573" ry="1.716"/>
		</g>
	</g>
</g>
</svg>
