<?xml version="1.0" encoding="utf-8"?>
<!-- Generator: Adobe Illustrator 16.0.0, SVG Export Plug-In . SVG Version: 6.00 Build 0)  -->
<!DOCTYPE svg PUBLIC "-//W3C//DTD SVG 1.1//EN" "http://www.w3.org/Graphics/SVG/1.1/DTD/svg11.dtd">
<svg version="1.1" id="Capa_1" xmlns="http://www.w3.org/2000/svg" xmlns:xlink="http://www.w3.org/1999/xlink" x="0px" y="0px"
	 width="99.667px" height="94.667px" viewBox="-17.096 -13.762 99.667 94.667"
	 enable-background="new -17.096 -13.762 99.667 94.667" xml:space="preserve">
<g>
	<g>
		<g>
			<path fill="#3864F3" stroke="#3864F3" stroke-width="2.5947" stroke-miterlimit="10" d="M-14.081,25.528
				c0.023,0.824,0.455,1.566,1.126,1.936l5.136,4.677c-0.188,0.998-0.742,2.574-0.742,3.521c0,8.613,6.395,15.625,14.254,15.625
				c0.252,0,0.489-0.058,0.737-0.081l1.508,3.312c0.25,0.549,0.697,0.959,1.234,1.141c0.193,0.063,0.391,0.091,0.587,0.091
				c0.354,0,0.706-0.099,1.018-0.297l17.33-10.961l2.239,4.087c1.666,3.047,4.718,4.941,7.957,4.941
				c0.665,0,1.313-0.138,1.954-0.292l3.339,5.489c2.271,3.732,6.07,5.962,10.164,5.962h15.06v2.227c0,1.234,0.912,2.232,2.037,2.232
				h8.146c1.129,0,2.038-0.998,2.038-2.232V44.582c0-1.233-0.912-2.206-2.038-2.206h-8.146c-1.125,0-2.034,0.973-2.034,2.206v6.713
				H53.766l-3.101-5.108c1.152-1.662,1.867-3.674,1.867-5.813c0-2.08-0.626-4.141-1.766-5.805l-2.104-3.074l11.646-7.367
				c2.738-1.73,4.443-4.962,4.443-8.43c0-2.007-0.556-3.937-1.605-5.583L52.448-6.636c-2.807-4.402-8.641-5.842-12.9-3.17
				l-52.602,33.334C-13.707,23.936-14.1,24.705-14.081,25.528z M72.895,64.677V46.834h4.074v17.843H72.895L72.895,64.677z
				 M44.058,51.439l3.498-2.297l2.819,4.633c0.752,1.245,2.02,1.986,3.387,1.986h15.06v4.461h-15.06
				c-2.729,0-5.264-1.487-6.775-3.974L44.058,51.439z M31.636,42.285l13.471-8.513l2.4,3.5c0.611,0.898,0.95,2.006,0.95,3.125
				c0,1.817-0.888,3.531-2.312,4.466l-5.164,3.392c-2.371,1.562-5.721,0.638-7.146-1.955L31.636,42.285z M4.301,36.567l50.393-31.84
				l5.112,7.997c0.57,0.891,0.869,1.935,0.869,3.021c0,1.874-0.919,3.621-2.401,4.558L10.616,50.416L4.301,36.567z M-4.489,35.691
				c0-0.264,0.046-0.548,0.069-0.822l4.523,2.475l4.262,9.347C-0.615,45.972-4.489,41.341-4.489,35.691z M-8.31,25.666l49.878-31.53
				c0.864-0.542,1.848-0.828,2.845-0.828c1.868,0,3.623,1.003,4.696,2.68l3.238,5.067L1.551,33.152L-8.31,25.666z"/>
			
				<ellipse fill="#3864F3" stroke="#3864F3" stroke-width="2.5947" stroke-miterlimit="10" cx="4.807" cy="24.679" rx="2.037" ry="2.231"/>
		</g>
	</g>
</g>
</svg>
